<svg width="1016" height="180" viewBox="0 0 1016 180" fill="none" xmlns="http://www.w3.org/2000/svg">
<path fill-rule="evenodd" clip-rule="evenodd" d="M324.928 33.1362H254.64V74.8061H322.918V107.94H254.64V175.717H220V0H324.928V33.1362Z" fill="#1F0D50"/>
<path fill-rule="evenodd" clip-rule="evenodd" d="M348.775 175.717H381.157V50.2059H348.775V175.717ZM364.842 41.1436C359.484 41.1436 354.838 39.179 350.909 35.2454C346.974 31.3129 345.009 26.6712 345.009 21.3134C345.009 15.959 346.974 11.2711 350.909 7.2553C354.838 3.23839 359.484 1.23218 364.842 1.23218C370.364 1.23218 375.09 3.23839 379.025 7.2553C382.954 11.2711 384.922 15.959 384.922 21.3134C384.922 26.6712 382.954 31.3129 379.025 35.2454C375.09 39.179 370.364 41.1436 364.842 41.1436Z" fill="#1F0D50"/>
<path fill-rule="evenodd" clip-rule="evenodd" d="M439.644 83.8503C439.644 87.2007 441.86 89.9184 446.296 92.0079C450.73 94.1031 456.126 95.9415 462.488 97.5323C468.846 99.1242 475.204 101.132 481.565 103.555C487.924 105.984 493.322 110.044 497.757 115.731C502.189 121.422 504.41 128.532 504.41 137.068C504.41 149.956 499.597 159.87 489.975 166.814C480.351 173.755 468.343 177.231 453.953 177.231C428.185 177.231 410.614 167.279 401.242 147.369C401.24 147.364 401.242 147.358 401.248 147.354L429.349 131.547C429.35 131.546 429.351 131.547 429.352 131.548C433.032 142.425 441.234 147.861 453.953 147.861C465.501 147.861 471.275 144.264 471.275 137.068C471.275 133.721 469.054 131.003 464.621 128.91C460.186 126.818 454.788 124.937 448.431 123.261C442.068 121.59 435.71 119.495 429.351 116.984C422.991 114.476 417.592 110.501 413.162 105.061C408.726 99.6252 406.509 92.805 406.509 84.6034C406.509 72.2206 411.065 62.4755 420.189 55.358C429.309 48.2485 440.649 44.6909 454.204 44.6909C464.409 44.6909 473.699 46.9932 482.069 51.5933C490.428 56.1968 497.035 62.7569 501.89 71.2827C501.896 71.2918 501.892 71.3019 501.883 71.3064L474.287 86.3608C470.27 77.8249 463.576 73.558 454.204 73.558C450.018 73.558 446.548 74.4801 443.786 76.3196C441.025 78.1637 439.644 80.6721 439.644 83.8503Z" fill="#1F0D50"/>
<path fill-rule="evenodd" clip-rule="evenodd" d="M559.012 138.439C565.62 145.052 573.947 148.355 583.988 148.355C594.029 148.355 602.313 145.052 608.84 138.439C615.367 131.83 618.628 123.339 618.628 112.961C618.628 102.587 615.367 94.0939 608.84 87.4808C602.313 80.8723 594.029 77.5669 583.988 77.5669C573.947 77.5669 565.62 80.8723 559.012 87.4808C552.399 94.0939 549.094 102.587 549.094 112.961C549.094 123.339 552.399 131.83 559.012 138.439ZM618.628 0.000244141H651.012V175.717H618.628V160.909C618.628 160.908 618.628 160.908 618.627 160.908C609.089 173.125 595.534 179.232 577.963 179.232C561.056 179.232 546.623 172.83 534.661 160.027C522.695 147.225 516.712 131.536 516.712 112.961C516.712 94.3855 522.695 78.6972 534.661 65.8944C546.623 53.0916 561.056 46.6902 577.963 46.6902C595.534 46.6902 609.089 52.8022 618.627 65.0129C618.627 65.014 618.628 65.014 618.628 65.0129V0.000244141Z" fill="#1F0D50"/>
<path fill-rule="evenodd" clip-rule="evenodd" d="M716.15 135.812C722.591 142.339 730.667 145.601 740.374 145.601C750.079 145.601 758.198 142.339 764.725 135.812C771.25 129.286 774.513 121.003 774.513 110.961C774.513 100.92 771.25 92.6359 764.725 86.1106C758.198 79.5832 750.079 76.3194 740.374 76.3194C730.667 76.3194 722.591 79.5832 716.15 86.1106C709.706 92.6359 706.485 100.92 706.485 110.961C706.485 121.003 709.706 129.286 716.15 135.812ZM787.567 158.028C774.679 170.83 758.949 177.232 740.374 177.232C721.799 177.232 706.109 170.83 693.306 158.028C680.503 145.225 674.102 129.536 674.102 110.961C674.102 92.386 680.503 76.6966 693.306 63.8949C706.109 51.0921 721.799 44.6907 740.374 44.6907C758.949 44.6907 774.679 51.0921 787.567 63.8949C800.451 76.6966 806.896 92.386 806.896 110.961C806.896 129.536 800.451 145.225 787.567 158.028Z" fill="#1F0D50"/>
<path fill-rule="evenodd" clip-rule="evenodd" d="M968.557 46.6907C982.948 46.6907 994.452 51.3786 1003.07 60.7488C1011.69 70.1223 1016 82.6718 1016 98.4018V175.716H983.618V100.659C983.618 93.1307 981.775 87.2742 978.095 83.0895C974.412 78.9093 969.223 76.8131 962.531 76.8131C955.166 76.8131 949.435 79.2415 945.337 84.0937C941.233 88.9483 939.185 95.9779 939.185 105.179V175.716H906.802V100.659C906.802 93.1307 904.96 87.2742 901.281 83.0895C897.597 78.9093 892.409 76.8131 885.717 76.8131C878.52 76.8131 872.789 79.2415 868.522 84.0937C864.254 88.9483 862.121 95.9779 862.121 105.179V175.716H829.737V50.2055H862.121V63.5093C869.652 52.2984 881.281 46.6907 897.014 46.6907C912.41 46.6907 923.787 52.7161 931.153 64.7646C939.521 52.7161 951.988 46.6907 968.557 46.6907Z" fill="#1F0D50"/>
<mask id="mask0" style="mask-type:alpha" maskUnits="userSpaceOnUse" x="0" y="2" width="75" height="172">
<path d="M3.0939 3.2534L74.0939 49.6401C74.6592 50.0094 75 50.6391 75 51.3144V171.536C75 172.641 74.1046 173.536 73 173.536C72.6115 173.536 72.2314 173.423 71.9061 173.211L0.906103 126.824C0.340772 126.455 0 125.825 0 125.15V4.92773C0 3.82316 0.89543 2.92773 2 2.92773C2.38852 2.92773 2.76864 3.0409 3.0939 3.2534Z" fill="white"/>
</mask>
<g mask="url(#mask0)">
<path d="M3.0939 3.2534L74.0939 49.6401C74.6592 50.0094 75 50.6391 75 51.3144V171.536C75 172.641 74.1046 173.536 73 173.536C72.6115 173.536 72.2314 173.423 71.9061 173.211L0.906103 126.824C0.340772 126.455 0 125.825 0 125.15V4.92773C0 3.82316 0.89543 2.92773 2 2.92773C2.38852 2.92773 2.76864 3.0409 3.0939 3.2534Z" fill="url(#paint0_linear)"/>
<path fill-rule="evenodd" clip-rule="evenodd" d="M25.0939 -14.7466L96.0939 31.6401C96.6592 32.0094 97 32.6391 97 33.3144V153.536C97 154.641 96.1046 155.536 95 155.536C94.6115 155.536 94.2314 155.423 93.9061 155.211L22.9061 108.824C22.3408 108.455 22 107.825 22 107.15V-13.0723C22 -14.1768 22.8954 -15.0723 24 -15.0723C24.3885 -15.0723 24.7686 -14.9591 25.0939 -14.7466Z" fill="url(#paint1_linear)"/>
</g>
<mask id="mask1" style="mask-type:alpha" maskUnits="userSpaceOnUse" x="100" y="2" width="75" height="98">
<path d="M100.888 50.8379L171.888 3.31521C172.805 2.70081 174.048 2.94687 174.662 3.86479C174.882 4.19397 175 4.58115 175 4.97726V49.9639C175 50.6313 174.667 51.2548 174.112 51.626L103.112 99.1487C102.195 99.7631 100.952 99.517 100.338 98.5991C100.118 98.2699 100 97.8827 100 97.4866V52.4999C100 51.8325 100.333 51.2091 100.888 50.8379Z" fill="white"/>
</mask>
<g mask="url(#mask1)">
<path d="M100.888 50.8379L171.888 3.31521C172.805 2.70081 174.048 2.94687 174.662 3.86479C174.882 4.19397 175 4.58115 175 4.97726V49.9639C175 50.6313 174.667 51.2548 174.112 51.626L103.112 99.1487C102.195 99.7631 100.952 99.517 100.338 98.5991C100.118 98.2699 100 97.8827 100 97.4866V52.4999C100 51.8325 100.333 51.2091 100.888 50.8379Z" fill="url(#paint2_linear)"/>
<path fill-rule="evenodd" clip-rule="evenodd" d="M80.8875 40.8379L151.888 -6.68479C152.805 -7.29919 154.048 -7.05313 154.662 -6.13521C154.882 -5.80603 155 -5.41885 155 -5.02274V39.9639C155 40.6313 154.667 41.2548 154.112 41.626L83.1125 89.1487C82.1945 89.7631 80.9523 89.517 80.3379 88.5991C80.1176 88.2699 80 87.8827 80 87.4866V42.4999C80 41.8325 80.3329 41.2091 80.8875 40.8379Z" fill="url(#paint3_linear)"/>
</g>
<mask id="mask2" style="mask-type:alpha" maskUnits="userSpaceOnUse" x="100" y="94" width="50" height="81">
<path d="M100.876 125.837L146.876 94.5904C147.79 93.9698 149.034 94.2073 149.654 95.121C149.88 95.4525 150 95.8441 150 96.2448V141.209C150 141.872 149.672 142.491 149.124 142.864L103.124 174.11C102.21 174.731 100.966 174.493 100.346 173.58C100.12 173.248 100 172.857 100 172.456V127.491C100 126.829 100.328 126.209 100.876 125.837Z" fill="white"/>
</mask>
<g mask="url(#mask2)">
<path d="M100.876 125.837L146.876 94.5904C147.79 93.9698 149.034 94.2073 149.654 95.121C149.88 95.4525 150 95.8441 150 96.2448V141.209C150 141.872 149.672 142.491 149.124 142.864L103.124 174.11C102.21 174.731 100.966 174.493 100.346 173.58C100.12 173.248 100 172.857 100 172.456V127.491C100 126.829 100.328 126.209 100.876 125.837Z" fill="url(#paint4_linear)"/>
<path fill-rule="evenodd" clip-rule="evenodd" d="M88.8762 112.837L134.876 81.5904C135.79 80.9698 137.034 81.2073 137.654 82.121C137.88 82.4525 138 82.8441 138 83.2448V128.209C138 128.872 137.672 129.491 137.124 129.864L91.1238 161.11C90.2101 161.731 88.9662 161.493 88.3456 160.58C88.1204 160.248 88 159.857 88 159.456V114.491C88 113.829 88.3281 113.209 88.8762 112.837Z" fill="url(#paint5_linear)"/>
</g>
<defs>
<linearGradient id="paint0_linear" x1="44.4672" y1="97.2401" x2="24.116" y2="89.2621" gradientUnits="userSpaceOnUse">
<stop stop-color="#8F6AFF"/>
<stop offset="1" stop-color="#6434DF"/>
</linearGradient>
<linearGradient id="paint1_linear" x1="64.5339" y1="75.2654" x2="52.2059" y2="74.2662" gradientUnits="userSpaceOnUse">
<stop stop-color="#8F6AFF"/>
<stop offset="1" stop-color="#6434DF"/>
</linearGradient>
<linearGradient id="paint2_linear" x1="158.594" y1="26.3499" x2="92.2369" y2="82.6414" gradientUnits="userSpaceOnUse">
<stop stop-color="#25D053"/>
<stop offset="1" stop-color="#47E37E"/>
</linearGradient>
<linearGradient id="paint3_linear" x1="146.056" y1="56.0083" x2="98.9461" y2="59.9377" gradientUnits="userSpaceOnUse">
<stop stop-color="#1EB646"/>
<stop offset="1" stop-color="#47E37E"/>
</linearGradient>
<linearGradient id="paint4_linear" x1="133.908" y1="126.112" x2="110.788" y2="137.281" gradientUnits="userSpaceOnUse">
<stop stop-color="#8534F2"/>
<stop offset="1" stop-color="#BA74FF"/>
</linearGradient>
<linearGradient id="paint5_linear" x1="117.249" y1="121.35" x2="81.3485" y2="143.849" gradientUnits="userSpaceOnUse">
<stop stop-color="#8534F2"/>
<stop offset="1" stop-color="#BA74FF"/>
</linearGradient>
</defs>
</svg>
